<?xml version="1.0" encoding="UTF-8" standalone="no"?>
<!-- Created with Inkscape (http://www.inkscape.org/) -->

<svg
   version="1.1"
   id="svg2"
   width="325"
   height="351"
   viewBox="0 0 325 351"
   xmlns="http://www.w3.org/2000/svg"
   xmlns:svg="http://www.w3.org/2000/svg">
  <defs
     id="defs6" />
  <g
     id="g8"
     transform="translate(-2.110534,-96.359892)">
    <path
       id="path1061"
       style="fill:#44b044;fill-opacity:1;stroke:none;stroke-opacity:1"
       d="m 52.110534,96.359892 v 50.499998 50.5 h -25 -25 v 95 95 h 25 25 v 30 30 h 137.499996 137.5 V 309.55911 171.76028 l -38.9375,-37.70117 -38.93945,-37.699218 h -98.56055 z m 25.999999,26.999998 h 74.999997 75 v 36.5 36.5 h 36.5 36.5 v 112.5 112.5 h -111.5 -111.499997 v -17 -17 h 56.499997 56.5 v -95 -95 h -56.5 -56.499997 v -37 z m -54.167969,110 h 21.83399 l 21.833979,0.002 13.95898,16.57227 c 10.9069,12.94926 14.18683,16.2731 15,15.19726 0.57242,-0.7573 6.831587,-8.21577 13.908207,-16.57421 l 12.86523,-15.19722 h 21.4668 c 13.30076,0 21.3413,0.36527 21.13476,0.96094 -0.18333,0.52876 -10.68398,13.41987 -23.33398,28.64648 -12.65,15.2266 -23.33403,28.2475 -23.74219,28.93555 -0.4773,0.8046 7.81862,11.36783 23.24805,29.60351 13.19435,15.59409 23.99119,28.69102 23.99219,29.10352 0.001,0.4125 -10.02514,0.75 -22.2793,0.75 h -22.2793 l -12.83984,-15.59375 c -11.861297,-14.40442 -12.965707,-15.4689 -14.470697,-13.9668 -0.89608,0.89436 -6.81389,7.79917 -13.15039,15.34375 l -11.51954,13.7168 -22.869139,0.26953 c -21.6263,0.25452 -22.79148,0.17351 -21.47851,-1.47461 1.14813,-1.44121 42.211979,-50.30075 46.511719,-55.3418 1.13851,-1.33479 -1.64132,-5.11268 -20.238279,-27.5 -11.85726,-14.27394 -22.90829,-27.64062 -24.55664,-29.70312 z m 199.167966,2 v 13 13 h 25 25 v -13 -13 h -25 z m 0,63 v 13 13 h 25 25 v -13 -13 h -25 z m 0,63 v 13 13 h 25 25 v -13 -13 h -25 z" />
  </g>
</svg>
