<?xml version="1.0" encoding="UTF-8" standalone="no"?>
<!-- Created with Inkscape (http://www.inkscape.org/) -->

<svg
   version="1.1"
   id="svg2"
   width="192"
   height="192"
   viewBox="0 0 192 192"
   sodipodi:docname="excel_icon_square.svg"
   inkscape:version="1.1.2 (0a00cf5339, 2022-02-04)"
   xmlns:inkscape="http://www.inkscape.org/namespaces/inkscape"
   xmlns:sodipodi="http://sodipodi.sourceforge.net/DTD/sodipodi-0.dtd"
   xmlns:xlink="http://www.w3.org/1999/xlink"
   xmlns="http://www.w3.org/2000/svg"
   xmlns:svg="http://www.w3.org/2000/svg">
  <defs
     id="defs6">
    <linearGradient
       id="linearGradient17657"
       inkscape:swatch="solid">
      <stop
         style="stop-color:#44b044;stop-opacity:1;"
         offset="0"
         id="stop17655" />
    </linearGradient>
    <linearGradient
       id="linearGradient17591"
       inkscape:swatch="solid">
      <stop
         style="stop-color:#44b044;stop-opacity:1;"
         offset="0"
         id="stop17589" />
    </linearGradient>
    <linearGradient
       id="linearGradient17526"
       inkscape:swatch="solid">
      <stop
         style="stop-color:#ffffff;stop-opacity:1;"
         offset="0"
         id="stop17524" />
    </linearGradient>
    <linearGradient
       id="linearGradient17480"
       inkscape:swatch="solid">
      <stop
         style="stop-color:#44b044;stop-opacity:1;"
         offset="0"
         id="stop17478" />
    </linearGradient>
    <linearGradient
       id="blanco"
       inkscape:swatch="solid">
      <stop
         style="stop-color:#ffffff;stop-opacity:1;"
         offset="0"
         id="stop15502" />
    </linearGradient>
    <linearGradient
       inkscape:collect="always"
       xlink:href="#linearGradient17657"
       id="linearGradient15506"
       x1="437.85214"
       y1="202.19673"
       x2="763.85211"
       y2="202.19673"
       gradientUnits="userSpaceOnUse"
       gradientTransform="matrix(0.54312035,0,0,0.54312035,-236.09357,82.798642)" />
    <linearGradient
       inkscape:collect="always"
       xlink:href="#linearGradient17591"
       id="linearGradient17593"
       x1="1.8344603"
       y1="270.79248"
       x2="327.2995"
       y2="270.79248"
       gradientUnits="userSpaceOnUse"
       gradientTransform="matrix(0.54312035,0,0,0.54312035,-1.2724064,-51.396729)" />
    <linearGradient
       inkscape:collect="always"
       xlink:href="#linearGradient17526"
       id="linearGradient17659"
       x1="21.832033"
       y1="176"
       x2="299"
       y2="176"
       gradientUnits="userSpaceOnUse" />
    <linearGradient
       inkscape:collect="always"
       xlink:href="#linearGradient17526"
       id="linearGradient20008"
       gradientUnits="userSpaceOnUse"
       x1="21.832033"
       y1="176"
       x2="299"
       y2="176" />
    <linearGradient
       inkscape:collect="always"
       xlink:href="#linearGradient17526"
       id="linearGradient20010"
       gradientUnits="userSpaceOnUse"
       x1="21.832033"
       y1="176"
       x2="299"
       y2="176" />
  </defs>
  <sodipodi:namedview
     id="namedview4"
     pagecolor="#ffffff"
     bordercolor="#666666"
     borderopacity="1.0"
     inkscape:pageshadow="2"
     inkscape:pageopacity="0.0"
     inkscape:pagecheckerboard="0"
     showgrid="false"
     fit-margin-top="0"
     fit-margin-left="0"
     fit-margin-right="0"
     fit-margin-bottom="0"
     inkscape:zoom="1.3622436"
     inkscape:cx="201.50581"
     inkscape:cy="229.76801"
     inkscape:window-width="3440"
     inkscape:window-height="1361"
     inkscape:window-x="0"
     inkscape:window-y="42"
     inkscape:window-maximized="1"
     inkscape:current-layer="layer1" />
  <g
     inkscape:groupmode="layer"
     id="layer1"
     inkscape:label="fondo"
     style="display:none">
    <rect
       style="display:inline;fill:url(#linearGradient17593);fill-opacity:1;stroke:#000000;stroke-width:0.205274;stroke-linejoin:round;stroke-opacity:1"
       id="rect5758"
       width="176.56142"
       height="191.79472"
       x="-0.17343664"
       y="-0.22119498" />
  </g>
  <g
     inkscape:groupmode="layer"
     id="layer2"
     inkscape:label="fondos_blancos"
     style="display:inline">
    <g
       id="g11336"
       style="fill:url(#linearGradient17659);fill-opacity:1;stroke:none;stroke-opacity:1"
       transform="matrix(0.54312035,0,0,0.54312035,-0.1261325,0.9382885)">
      <path
         d="M 76.00001,27.000002 H 151 226 v 36.5 V 100 H 262.5 299 V 212.5 325 H 187.5 76.00001 V 308 291 H 132.5 189 V 101 H 132.5 76.00001 V 64.000002 Z"
         style="display:inline;fill:url(#linearGradient20008);fill-opacity:1;stroke:none;stroke-opacity:1"
         id="path5185" />
      <path
         d="m 23.942568,233.35989 h 21.83398 l 21.83398,0.002 13.95899,16.57227 c 10.9069,12.94926 14.18683,16.2731 15,15.19726 0.57242,-0.7573 6.831582,-8.21577 13.908202,-16.57421 l 12.86522,-15.19732 h 21.46681 c 13.30076,0 21.3413,0.36527 21.13476,0.96094 -0.18333,0.52876 -10.68398,13.41987 -23.33398,28.64648 -12.65,15.2266 -23.33403,28.2475 -23.74219,28.93555 -0.4773,0.8046 7.81862,11.36783 23.24805,29.60351 13.19435,15.59409 23.99119,28.69102 23.99219,29.10352 0.001,0.4125 -10.02514,0.75 -22.2793,0.75 h -22.2793 l -12.83984,-15.59375 c -11.861292,-14.40442 -12.965712,-15.4689 -14.470702,-13.9668 -0.89608,0.89436 -6.81389,7.79917 -13.15039,15.34375 l -11.51953,13.7168 -22.86914,0.26953 c -21.6263,0.25452 -22.79149,0.17351 -21.47852,-1.47461 1.14813,-1.44121 42.21198,-50.30074 46.51172,-55.3418 1.13851,-1.33478 -1.64132,-5.11268 -20.23828,-27.5 -11.85726,-14.27394 -22.90829,-27.64062 -24.55664,-29.70312 z"
         style="display:inline;fill:url(#linearGradient20010);fill-opacity:1;stroke:none;stroke-opacity:1"
         id="path7361"
         transform="translate(-2.110534,-96.359892)" />
    </g>
  </g>
  <g
     inkscape:groupmode="layer"
     inkscape:label="Image"
     id="g8"
     transform="translate(-2.110534,-96.359892)"
     style="display:inline">
    <path
       id="path1061"
       style="display:inline;fill:url(#linearGradient15506);fill-opacity:1;stroke:none;stroke-width:0.54312;stroke-opacity:1"
       d="m 29.140419,97.29818 v 27.42757 27.42758 H 15.56241 1.9844015 v 51.59644 51.59643 H 15.56241 29.140419 v 16.29361 16.29361 h 74.679041 74.67905 V 213.09101 138.24967 L 157.35076,117.77339 136.20195,97.29818 H 82.67171 Z m 14.121129,14.66424 h 40.734018 40.734024 v 19.8239 19.82389 h 19.82389 19.8239 v 61.10104 61.10104 H 103.81946 43.261548 v -9.23304 -9.23305 h 30.686292 30.6863 V 203.74977 152.15333 H 73.94784 43.261548 V 132.05788 Z M 13.841821,171.70567 H 25.7003 l 11.858484,0.001 7.581406,9.00074 c 5.92376,7.03301 7.705156,8.83825 8.146805,8.25394 0.310893,-0.4113 3.710368,-4.46215 7.553825,-9.00179 l 6.987368,-8.25397 h 11.659056 c 7.223913,0 11.590894,0.19838 11.478718,0.5219 -0.09957,0.28718 -5.802687,7.28861 -12.673159,15.55849 -6.870473,8.26988 -12.673187,15.34179 -12.894867,15.71549 -0.259231,0.43699 4.246452,6.17409 12.626489,16.07826 7.16612,8.46947 13.030104,15.58268 13.030647,15.80672 5.43e-4,0.22403 -5.444858,0.40734 -12.100341,0.40734 H 66.854389 l -6.973578,-8.46929 c -6.442106,-7.82333 -7.041939,-8.40147 -7.859329,-7.58565 -0.48668,0.48575 -3.700763,4.23589 -7.142245,8.3335 l -6.256491,7.44988 -12.420695,0.14638 c -11.745684,0.13824 -12.378522,0.0942 -11.665421,-0.80089 0.623572,-0.78275 22.926185,-27.31935 25.261461,-30.05725 0.618348,-0.72495 -0.891434,-2.7768 -10.991821,-14.93581 -6.43992,-7.75247 -12.441959,-15.01219 -13.337211,-16.13237 z m 108.172169,1.08624 v 7.06056 7.06057 h 13.57801 13.57801 v -7.06057 -7.06056 H 135.592 Z m 0,34.21658 v 7.06056 7.06057 h 13.57801 13.57801 v -7.06057 -7.06056 H 135.592 Z m 0,34.21658 v 7.06057 7.06056 h 13.57801 13.57801 v -7.06056 -7.06057 H 135.592 Z"
       sodipodi:nodetypes="ccccccccccccccccccccccccccccccccccccccccccccsccsssssssccscccsssccccccccccccccccccccccccccccc" />
  </g>
</svg>
