<?xml version="1.0" encoding="UTF-8" standalone="no"?>
<!-- Created with Inkscape (http://www.inkscape.org/) -->

<svg
   version="1.1"
   id="svg2"
   width="325"
   height="351"
   viewBox="0 0 325 351"
   xmlns="http://www.w3.org/2000/svg"
   xmlns:svg="http://www.w3.org/2000/svg">
  <defs
     id="defs6" />
  <g
     id="g8"
     transform="translate(-2.110534,-96.359892)">
    <rect
       style="fill:#44b044;fill-opacity:1;stroke:#000000;stroke-width:0.377953;stroke-linejoin:round;stroke-opacity:1"
       id="rect5758"
       width="325.0871"
       height="353.13486"
       x="2.0234368"
       y="94.225037" />
    <path
       d="m 78.110534,123.35989 h 74.999996 75 v 36.5 36.5 h 36.5 36.5 v 112.5 112.5 h -111.5 -111.499996 v -17 -17 h 56.499996 56.5 v -190 h -56.5 -56.499996 v -37 z"
       style="fill:#ffffff;fill-opacity:1;stroke:none;stroke-opacity:1"
       id="path5185" />
    <path
       d="m 23.942568,233.35989 h 21.83398 l 21.83398,0.002 13.95899,16.57227 c 10.9069,12.94926 14.18683,16.2731 15,15.19726 0.57242,-0.7573 6.831582,-8.21577 13.908202,-16.57421 l 12.86522,-15.19732 h 21.46681 c 13.30076,0 21.3413,0.36527 21.13476,0.96094 -0.18333,0.52876 -10.68398,13.41987 -23.33398,28.64648 -12.65,15.2266 -23.33403,28.2475 -23.74219,28.93555 -0.4773,0.8046 7.81862,11.36783 23.24805,29.60351 13.19435,15.59409 23.99119,28.69102 23.99219,29.10352 0.001,0.4125 -10.02514,0.75 -22.2793,0.75 h -22.2793 l -12.83984,-15.59375 c -11.861292,-14.40442 -12.965712,-15.4689 -14.470702,-13.9668 -0.89608,0.89436 -6.81389,7.79917 -13.15039,15.34375 l -11.51953,13.7168 -22.86914,0.26953 c -21.6263,0.25452 -22.79149,0.17351 -21.47852,-1.47461 1.14813,-1.44121 42.21198,-50.30074 46.51172,-55.3418 1.13851,-1.33478 -1.64132,-5.11268 -20.23828,-27.5 -11.85726,-14.27394 -22.90829,-27.64062 -24.55664,-29.70312 z"
       style="fill:#ffffff;fill-opacity:1;stroke:none;stroke-opacity:1"
       id="path7361" />
    <path
       id="path1061"
       style="fill:#44b044;fill-opacity:1;stroke:none;stroke-opacity:1"
       d="M 50,0 V 50.5 101 H 25 0 v 95 95 h 25 25 v 30 30 H 187.5 325 V 213.19922 75.400391 L 286.0625,37.699219 247.12305,0 H 148.5625 Z m 26,27 h 75 75 V 63.5 100 H 262.5 299 V 212.5 325 H 187.5 76 V 308 291 H 132.5 189 V 196 101 H 132.5 76 V 64 Z M 21.832031,137 H 43.666016 L 65.5,137.002 79.458984,153.57427 c 10.9069,12.94926 14.18683,16.2731 15,15.19726 0.57242,-0.7573 6.831586,-8.21577 13.908206,-16.57421 L 121.23242,137 h 21.4668 c 13.30076,0 21.3413,0.36527 21.13476,0.96094 -0.18333,0.52876 -10.68398,13.41987 -23.33398,28.64648 -12.65,15.2266 -23.33403,28.2475 -23.74219,28.93555 -0.4773,0.8046 7.81862,11.36783 23.24805,29.60351 13.19435,15.59409 23.99119,28.69102 23.99219,29.10352 0.001,0.4125 -10.02514,0.75 -22.2793,0.75 h -22.2793 l -12.83984,-15.59375 c -11.861298,-14.40442 -12.965714,-15.4689 -14.470704,-13.9668 -0.89608,0.89436 -6.81389,7.79917 -13.15039,15.34375 L 67.458984,254.5 l -22.86914,0.26953 c -21.6263,0.25452 -22.791486,0.17351 -21.478516,-1.47461 1.14813,-1.44121 42.211979,-50.30074 46.511719,-55.3418 1.13851,-1.33478 -1.641322,-5.11268 -20.238281,-27.5 C 37.527506,156.17918 26.476475,142.8125 24.828125,140.75 Z M 221,139 v 13 13 h 25 25 v -13 -13 h -25 z m 0,63 v 13 13 h 25 25 v -13 -13 h -25 z m 0,63 v 13 13 h 25 25 v -13 -13 h -25 z"
       transform="translate(2.110534,96.359892)" />
  </g>
</svg>
