<?xml version="1.0" encoding="utf-8"?>
<!-- Generator: Adobe Illustrator 24.1.1, SVG Export Plug-In . SVG Version: 6.00 Build 0)  -->
<svg version="1.1" id="Layer_1" xmlns="http://www.w3.org/2000/svg" xmlns:xlink="http://www.w3.org/1999/xlink" x="0px" y="0px"
	 viewBox="0 0 512 512" style="enable-background:new 0 0 512 512;" xml:space="preserve">
<g>
	<path d="M256.6,512l-13.7-17C209.5,454.3,75,270.4,75,181.2C70.7,85.5,144.9,4.4,240.7,0.2c5.1-0.2,10.2-0.2,15.2,0
		C351.7-4.1,432.7,70.1,437,165.8c0.2,5.1,0.2,10.3,0,15.4c0,75.8-91.4,209.4-160.3,303.2L256.6,512z M255.9,33.9
		c-77-4.3-143,54.6-147.3,131.6c-0.3,5.2-0.3,10.5,0,15.7c0,62.8,94.5,206.8,146.8,275.2c42.8-58.6,147.8-205.2,147.8-275.2
		c4.3-77-54.6-142.9-131.6-147.3C266.4,33.6,261.2,33.6,255.9,33.9L255.9,33.9z"/>
</g>
</svg>
